<svg width="10" height="6" viewBox="0 0 10 6" fill="none" xmlns="http://www.w3.org/2000/svg">
<path d="M5.14014 5.93164C5.0555 5.93164 4.97412 5.91536 4.896 5.88281C4.81787 5.85026 4.74626 5.80143 4.68115 
5.73633L0.706543 1.77148C0.582845 1.64779 0.520996 1.49642 0.520996 1.31738C0.520996 1.13835 0.582845 0.983724 
0.706543 0.853516C0.836751 0.729818 0.991374 0.667969 1.17041 0.667969C1.34945 0.667969 1.50081 0.729818 1.62451 
0.853516L5.14014 4.36914L8.646 0.853516C8.7762 0.729818 8.9292 0.667969 9.10498 0.667969C9.28076 0.667969 9.43376 
0.729818 9.56396 0.853516C9.68766 0.983724 9.74951 1.13835 9.74951 1.31738C9.74951 1.49642 9.68766 1.64779 9.56396 
1.77148L5.58936 5.73633C5.53076 5.80143 5.46077 5.85026 5.37939 5.88281C5.29801 5.91536 5.21826 5.93164 5.14014 5.93164Z" 
fill="#131836"/>

</svg>
