<svg width="12" height="12" viewBox="0 0 12 12" fill="none" xmlns="http://www.w3.org/2000/svg">
<path d="M10.5057 0.915283H2.41199C2.34819 0.915283 2.28894 0.926677 2.23425 0.949463C2.17957 0.972249 2.13399 1.00187 2.09753 1.03833C2.05196 1.0839 2.02006 1.13175 2.00183 1.18188C1.9836 1.23201 1.97449 1.28898 1.97449 1.35278C1.97449 1.40747 1.9836 1.46216 2.00183 1.51685C2.02006 1.57153 2.05196 1.61711 2.09753 1.65356C2.13399 1.69914 2.17957 1.73332 2.23425 1.7561C2.28894 1.77889 2.34819 1.79028 2.41199 1.79028H9.64441L0.661987 10.759C0.643758 10.7864 0.625529 10.8114 0.6073 10.8342C0.589071 10.857 0.575399 10.8821 0.566284 10.9094C0.55717 10.9368 0.548055 10.9641 0.53894 10.9915C0.529826 11.0188 0.525269 11.0461 0.525269 11.0735C0.525269 11.1099 0.527547 11.1418 0.532104 11.1692C0.536662 11.1965 0.543498 11.2239 0.552612 11.2512C0.570841 11.2786 0.586792 11.3036 0.600464 11.3264C0.614136 11.3492 0.630086 11.3743 0.648315 11.4016C0.675659 11.4198 0.700724 11.4358 0.723511 11.4495C0.746297 11.4631 0.771362 11.4791 0.798706 11.4973C0.82605 11.5064 0.853394 11.5133 0.880737 11.5178C0.908081 11.5224 0.939982 11.5247 0.97644 11.5247C1.00378 11.5247 1.03113 11.5201 1.05847 11.511C1.08582 11.5019 1.11316 11.4928 1.1405 11.4836C1.16785 11.4745 1.19291 11.4609 1.2157 11.4426C1.23848 11.4244 1.26355 11.4062 1.29089 11.3879L10.2596 2.40552V9.63794C10.2596 9.70174 10.271 9.76099 10.2938 9.81567C10.3166 9.87036 10.3508 9.91593 10.3964 9.95239C10.4328 9.99797 10.4784 10.0299 10.5331 10.0481C10.5878 10.0663 10.6425 10.0754 10.6971 10.0754C10.7609 10.0754 10.8179 10.0663 10.868 10.0481C10.9182 10.0299 10.966 9.99797 11.0116 9.95239C11.0481 9.91593 11.0777 9.87036 11.1005 9.81567C11.1233 9.76099 11.1346 9.70174 11.1346 9.63794V1.54419C11.1346 1.46216 11.1187 1.38241 11.0868 1.30493C11.0549 1.22746 11.0116 1.15682 10.9569 1.09302C10.8931 1.03833 10.8225 0.995036 10.745 0.963135C10.6675 0.931233 10.5878 0.915283 10.5057 0.915283Z" fill="#131836"/>
</svg>
