<svg width="15" height="14" viewBox="0 0 15 14" fill="none" xmlns="http://www.w3.org/2000/svg">
<path d="M12.5857 1.69531H4.49194C4.42814 1.69531 4.3689 1.70671 4.31421 1.72949C4.25952 1.75228 4.21395 1.7819 4.17749 1.81836C4.13192 1.86393 4.10002 1.91178 4.08179 1.96191C4.06356 2.01204 4.05444 2.06901 4.05444 2.13281C4.05444 2.1875 4.06356 2.24219 4.08179 2.29688C4.10002 2.35156 4.13192 2.39714 4.17749 2.43359C4.21395 2.47917 4.25952 2.51335 4.31421 2.53613C4.3689 2.55892 4.42814 2.57031 4.49194 2.57031H11.7244L2.74194 11.5391C2.72371 11.5664 2.70549 11.5915 2.68726 11.6143C2.66903 11.637 2.65535 11.6621 2.64624 11.6895C2.63713 11.7168 2.62801 11.7441 2.6189 11.7715C2.60978 11.7988 2.60522 11.8262 2.60522 11.8535C2.60522 11.89 2.6075 11.9219 2.61206 11.9492C2.61662 11.9766 2.62345 12.0039 2.63257 12.0312C2.6508 12.0586 2.66675 12.0837 2.68042 12.1064C2.69409 12.1292 2.71004 12.1543 2.72827 12.1816C2.75562 12.1999 2.78068 12.2158 2.80347 12.2295C2.82625 12.2432 2.85132 12.2591 2.87866 12.2773C2.90601 12.2865 2.93335 12.2933 2.96069 12.2979C2.98804 12.3024 3.01994 12.3047 3.0564 12.3047C3.08374 12.3047 3.11108 12.3001 3.13843 12.291C3.16577 12.2819 3.19312 12.2728 3.22046 12.2637C3.2478 12.2546 3.27287 12.2409 3.29565 12.2227C3.31844 12.2044 3.34351 12.1862 3.37085 12.168L12.3396 3.18555V10.418C12.3396 10.4818 12.351 10.541 12.3738 10.5957C12.3966 10.6504 12.4307 10.696 12.4763 10.7324C12.5128 10.778 12.5583 10.8099 12.613 10.8281C12.6677 10.8464 12.7224 10.8555 12.7771 10.8555C12.8409 10.8555 12.8979 10.8464 12.948 10.8281C12.9981 10.8099 13.046 10.778 13.0916 10.7324C13.128 10.696 13.1576 10.6504 13.1804 10.5957C13.2032 10.541 13.2146 10.4818 13.2146 10.418V2.32422C13.2146 2.24219 13.1986 2.16243 13.1667 2.08496C13.1348 2.00749 13.0916 1.93685 13.0369 1.87305C12.9731 1.81836 12.9024 1.77507 12.825 1.74316C12.7475 1.71126 12.6677 1.69531 12.5857 1.69531Z" fill="white"/>
</svg>
