<svg width="12" height="12" viewBox="0 0 12 12" fill="none" xmlns="http://www.w3.org/2000/svg">
<path d="M7.5999 1.38003C6.4799 1.13114 5.3599 1.13114 4.2399 1.38003C3.52434 1.56669 2.90212 1.92447 2.37323 2.45336C1.84434 2.98225 1.48656 3.60447 1.2999 4.32003C1.05101 5.44003 1.05101 6.56003 1.2999 7.68003C1.48656 8.39558 1.84434 9.0178 2.37323 9.54669C2.90212 10.0756 3.52434 10.4334 4.2399 10.62C5.3599 10.8689 6.4799 10.8689 7.5999 10.62C8.31545 10.4334 8.93767 10.0756 9.46656 9.54669C9.99545 9.0178 10.3532 8.39558 10.5399 7.68003C10.7888 6.56003 10.7888 5.44003 10.5399 4.32003C10.3532 3.60447 9.99545 2.98225 9.46656 2.45336C8.93767 1.92447 8.31545 1.56669 7.5999 1.38003ZM4.05323 0.540026C5.29767 0.228915 6.54212 0.228915 7.78656 0.540026C8.68878 0.757804 9.45879 1.18558 10.0966 1.82336C10.7343 2.46114 11.1621 3.23114 11.3799 4.13336C11.691 5.3778 11.691 6.62225 11.3799 7.86669C11.1621 8.76891 10.7343 9.53891 10.0966 10.1767C9.45879 10.8145 8.68878 11.2422 7.78656 11.46C6.54212 11.7711 5.29767 11.7711 4.05323 11.46C3.15101 11.2422 2.38101 10.8145 1.74323 10.1767C1.10545 9.53891 0.677674 8.76891 0.459896 7.86669C0.148785 6.62225 0.148785 5.3778 0.459896 4.13336C0.677674 3.23114 1.10545 2.46114 1.74323 1.82336C2.38101 1.18558 3.15101 0.757804 4.05323 0.540026ZM5.73323 3.80669C5.85767 3.80669 5.95878 3.85336 6.03656 3.94669C6.11434 4.04003 6.15323 4.13336 6.15323 4.22669V6.18669L7.5999 7.07336C7.72434 7.13558 7.79434 7.22891 7.8099 7.35336C7.82545 7.4778 7.80212 7.59447 7.7399 7.70336C7.67767 7.81225 7.58434 7.87447 7.4599 7.89003C7.33545 7.90558 7.22656 7.88225 7.13323 7.82003L5.4999 6.79336C5.34434 6.70003 5.26656 6.57558 5.26656 6.42003V4.22669C5.26656 4.13336 5.31323 4.04003 5.40656 3.94669C5.4999 3.85336 5.60878 3.80669 5.73323 3.80669Z" fill="#585D69"/>
</svg>
