<svg width="10" height="12" viewBox="0 0 10 12" fill="none" xmlns="http://www.w3.org/2000/svg">
<path d="M3.43694 2.03382C3.09472 1.81604 2.72138 1.74604 2.31694 1.82382C1.9125 1.9016 1.57027 2.10382 1.29027 2.43049C1.01027 2.75715 0.870273 3.15382 0.870273 3.62049V8.38049C0.870273 8.84715 1.01027 9.24382 1.29027 9.57049C1.57027 9.89715 1.9125 10.0994 2.31694 10.1772C2.72138 10.2549 3.09472 10.1849 3.43694 9.96715L7.31027 7.58715C7.68361 7.36938 7.94027 7.05049 8.08027 6.63049C8.22027 6.21049 8.22027 5.79049 8.08027 5.37049C7.94027 4.95049 7.68361 4.6316 7.31027 4.41382L3.43694 2.03382ZM0.0302734 3.62049C0.0302734 2.96715 0.232496 2.3916 0.63694 1.89382C1.04138 1.39604 1.54694 1.07715 2.15361 0.937154C2.76027 0.797154 3.34361 0.91382 3.90361 1.28715L7.77694 3.66715C8.33694 4.00938 8.71805 4.48382 8.92027 5.09049C9.1225 5.69715 9.1225 6.30382 8.92027 6.91049C8.71805 7.51715 8.33694 7.9916 7.77694 8.33382L3.90361 10.7138C3.34361 11.0872 2.76027 11.2038 2.15361 11.0638C1.54694 10.9238 1.04138 10.6049 0.63694 10.1072C0.232496 9.60938 0.0302734 9.03382 0.0302734 8.38049V3.62049Z" fill="#585D69"/>
</svg>
