<svg width="17" height="17" viewBox="0 0 17 17" fill="none" xmlns="http://www.w3.org/2000/svg">
<path d="M8.04492 1.625C7.12044 1.625 6.25456 1.80078 5.44727 2.15234C4.63997 2.50391 3.93685 2.97917 3.33789 3.57812C2.73893 4.17708 2.26367 4.88021 1.91211 5.6875C1.56055 6.49479 1.38477 7.36068 1.38477 8.28516C1.38477 9.20964 1.56055 10.0755 1.91211 10.8828C2.26367 11.6901 2.73893 12.3932 3.33789 12.9922C3.93685 13.5911 4.63997 14.0664 5.44727 14.418C6.25456 14.7695 7.12044 14.9453 8.04492 14.9453C8.9694 14.9453 9.83529 14.7695 10.6426 14.418C11.4499 14.0664 12.153 13.5911 12.752 12.9922C13.3509 12.3932 13.8262 11.6901 14.1777 10.8828C14.5293 10.0755 14.7051 9.20964 14.7051 8.28516C14.7051 7.36068 14.5293 6.49479 14.1777 5.6875C13.8262 4.88021 13.3509 4.17708 12.752 3.57812C12.153 2.97917 11.4499 2.50391 10.6426 2.15234C9.83529 1.80078 8.9694 1.625 8.04492 1.625ZM0.134766 8.28516C0.134766 7.19141 0.343099 6.16276 0.759766 5.19922C1.17643 4.2487 1.74284 3.41536 2.45898 2.69922C3.17513 1.98307 4.00846 1.41667 4.95898 1C5.92253 0.583334 6.95117 0.375 8.04492 0.375C9.13867 0.375 10.1673 0.583334 11.1309 1C12.0814 1.41667 12.9147 1.98307 13.6309 2.69922C14.347 3.41536 14.9134 4.2487 15.3301 5.19922C15.7467 6.16276 15.9551 7.19141 15.9551 8.28516C15.9551 9.37891 15.7467 10.4076 15.3301 11.3711C14.9134 12.3216 14.347 13.1549 13.6309 13.8711C12.9147 14.5872 12.0814 15.1536 11.1309 15.5703C10.1673 15.987 9.13867 16.1953 8.04492 16.1953C6.95117 16.1953 5.92253 15.987 4.95898 15.5703C4.00846 15.1536 3.17513 14.5872 2.45898 13.8711C1.74284 13.1549 1.17643 12.3216 0.759766 11.3711C0.343099 10.4076 0.134766 9.37891 0.134766 8.28516ZM12.8496 13.0898C12.9668 12.9596 13.1133 12.8945 13.2891 12.8945C13.4648 12.8945 13.6113 12.9596 13.7285 13.0898L16.209 15.5508C16.3262 15.681 16.3848 15.8307 16.3848 16C16.3848 16.1693 16.3262 16.319 16.209 16.4492C16.0788 16.5664 15.929 16.625 15.7598 16.625C15.5905 16.625 15.4473 16.5664 15.3301 16.4492L12.8496 13.9688C12.7194 13.8516 12.6543 13.7051 12.6543 13.5293C12.6543 13.3535 12.7194 13.207 12.8496 13.0898Z" fill="#585D69"/>
</svg>
