<svg width="12" height="12" viewBox="0 0 12 12" fill="none" xmlns="http://www.w3.org/2000/svg">
<path d="M3.21664 7.52523L2.63656 11.0809C2.61508 11.2241 2.66163 11.3369 2.77621 11.4193C2.8908 11.5016 3.01254 11.507 3.14145 11.4354L6.16 9.77035L9.17856 11.4354C9.3003 11.507 9.42205 11.5016 9.54379 11.4193C9.66554 11.3369 9.71208 11.2241 9.68344 11.0809L9.10336 7.52523L11.5633 5.00082C11.6564 4.90772 11.6815 4.79314 11.6385 4.65707C11.5955 4.521 11.506 4.44222 11.37 4.42074L7.98617 3.90511L6.47153 0.682458C6.41423 0.560713 6.31039 0.499841 6.16 0.499841C6.00961 0.499841 5.90577 0.560713 5.84848 0.682458L4.33383 3.90511L0.950041 4.42074C0.813973 4.44222 0.724455 4.51921 0.681486 4.6517C0.638518 4.78418 0.663583 4.90056 0.756682 5.00082L3.21664 7.52523Z" fill="#131836"/>
</svg>
