<svg width="12" height="12" viewBox="0 0 12 12" fill="none" xmlns="http://www.w3.org/2000/svg">
<path d="M4.27331 1.75358C3.80664 1.75358 3.41775 1.91691 3.10664 2.24358C2.79553 2.57025 2.63997 2.95136 2.63997 3.38691C2.63997 3.82247 2.79553 4.1958 3.10664 4.50691C3.41775 4.81803 3.79886 4.97358 4.24997 4.97358C4.70109 4.97358 5.0822 4.81803 5.39331 4.50691C5.70442 4.1958 5.85997 3.82247 5.85997 3.38691C5.85997 2.95136 5.70442 2.57025 5.39331 2.24358C5.0822 1.91691 4.70886 1.75358 4.27331 1.75358ZM1.75331 3.38691C1.75331 2.70247 1.99442 2.11914 2.47664 1.63691C2.95886 1.15469 3.54997 0.913581 4.24997 0.913581C4.94997 0.913581 5.54109 1.15469 6.02331 1.63691C6.50553 2.11914 6.74664 2.70247 6.74664 3.38691C6.74664 4.07136 6.50553 4.65469 6.02331 5.13691C5.54109 5.61914 4.94997 5.86025 4.24997 5.86025C3.54997 5.86025 2.95886 5.61914 2.47664 5.13691C1.99442 4.65469 1.75331 4.07136 1.75331 3.38691ZM2.91997 7.82025H2.82664C2.35997 7.91358 1.97109 8.13914 1.65997 8.49691C1.34886 8.85469 1.19331 9.26691 1.19331 9.73358C1.19331 9.88914 1.23997 10.0136 1.33331 10.1069C1.42664 10.2002 1.53553 10.2469 1.65997 10.2469H6.83997C6.96442 10.2469 7.07331 10.2002 7.16664 10.1069C7.25997 10.0136 7.30664 9.88914 7.30664 9.73358C7.30664 9.26691 7.15108 8.85469 6.83997 8.49691C6.52886 8.13914 6.13997 7.91358 5.67331 7.82025H5.57997C4.67775 7.66469 3.79109 7.66469 2.91997 7.82025ZM2.77997 6.98025C3.74442 6.82469 4.72442 6.82469 5.71997 6.98025H5.81331C6.49775 7.07358 7.06553 7.38469 7.51664 7.91358C7.96775 8.44247 8.19331 9.04914 8.19331 9.73358C8.19331 10.1069 8.06109 10.4258 7.79664 10.6902C7.5322 10.9547 7.21331 11.0869 6.83997 11.0869H1.65997C1.28664 11.0869 0.967752 10.9547 0.703307 10.6902C0.438863 10.4258 0.306641 10.1069 0.306641 9.73358C0.306641 9.04914 0.532196 8.44247 0.983307 7.91358C1.43442 7.38469 2.0022 7.07358 2.68664 6.98025H2.77997ZM7.30664 1.33358C7.30664 1.20914 7.35331 1.10803 7.44664 1.03025C7.53997 0.95247 7.64886 0.913581 7.77331 0.913581C8.45775 0.913581 9.04109 1.15469 9.52331 1.63691C10.0055 2.11914 10.2466 2.70247 10.2466 3.38691C10.2466 4.07136 10.0055 4.65469 9.52331 5.13691C9.04109 5.61914 8.4422 5.86025 7.72664 5.86025C7.63331 5.86025 7.53997 5.81358 7.44664 5.72025C7.35331 5.62691 7.30664 5.5258 7.30664 5.41691C7.30664 5.30803 7.35331 5.20691 7.44664 5.11358C7.53997 5.02025 7.64886 4.97358 7.77331 4.97358C8.20886 4.97358 8.5822 4.81803 8.89331 4.50691C9.20442 4.1958 9.35997 3.82247 9.35997 3.38691C9.35997 2.95136 9.20442 2.57025 8.89331 2.24358C8.5822 1.91691 8.19331 1.75358 7.72664 1.75358C7.63331 1.75358 7.53997 1.71469 7.44664 1.63691C7.35331 1.55914 7.30664 1.45802 7.30664 1.33358ZM8.05331 7.40025C8.05331 7.2758 8.0922 7.16691 8.16997 7.07358C8.24775 6.98025 8.34886 6.93358 8.47331 6.93358H9.03331L9.31331 6.98025C9.99775 7.07358 10.5655 7.38469 11.0166 7.91358C11.4678 8.44247 11.6933 9.04914 11.6933 9.73358C11.6933 10.1069 11.5611 10.4258 11.2966 10.6902C11.0322 10.9547 10.7133 11.0869 10.34 11.0869H9.12664C9.0022 11.0869 8.90108 11.048 8.82331 10.9702C8.74553 10.8925 8.70664 10.7914 8.70664 10.6669C8.70664 10.5425 8.74553 10.4414 8.82331 10.3636C8.90108 10.2858 9.0022 10.2469 9.12664 10.2469H10.34C10.4644 10.2469 10.5733 10.2002 10.6666 10.1069C10.76 10.0136 10.8066 9.88914 10.8066 9.73358C10.8066 9.26691 10.6511 8.85469 10.34 8.49691C10.0289 8.13914 9.63997 7.91358 9.17331 7.82025H8.47331C8.34886 7.82025 8.24775 7.78136 8.16997 7.70358C8.0922 7.6258 8.05331 7.52469 8.05331 7.40025Z" fill="#585D69"/>
</svg>
