<svg width="12" height="14" viewBox="0 0 12 14" fill="none" xmlns="http://www.w3.org/2000/svg">
<path d="M3.80664 8.16669C3.80664 8.04225 3.85331 7.94113 3.94664 7.86336C4.03997 7.78558 4.14886 7.74669 4.27331 7.74669H7.77331C7.86664 7.74669 7.95997 7.78558 8.05331 7.86336C8.14664 7.94113 8.19331 8.04225 8.19331 8.16669C8.19331 8.29113 8.14664 8.39225 8.05331 8.47002C7.95997 8.5478 7.86664 8.58669 7.77331 8.58669H4.27331C4.14886 8.58669 4.03997 8.5478 3.94664 8.47002C3.85331 8.39225 3.80664 8.29113 3.80664 8.16669ZM4.27331 0.74669C4.36664 0.74669 4.45997 0.785579 4.55331 0.863357C4.64664 0.941134 4.69331 1.04225 4.69331 1.16669V1.91336H7.30664V1.16669C7.30664 1.04225 7.35331 0.941134 7.44664 0.863357C7.53997 0.785579 7.64109 0.74669 7.74997 0.74669C7.85886 0.74669 7.95997 0.785579 8.05331 0.863357C8.14664 0.941134 8.19331 1.04225 8.19331 1.16669V1.91336C8.65997 1.94447 9.06442 2.00669 9.40664 2.10002C9.74886 2.19336 10.0522 2.34114 10.3166 2.54336C10.5811 2.74558 10.8222 2.99447 11.04 3.29002C11.2578 3.58558 11.4133 3.95113 11.5066 4.38669C11.6 4.72891 11.6622 5.21113 11.6933 5.83336V7.56002V9.33336C11.6622 9.95558 11.6 10.4378 11.5066 10.78C11.4133 11.2156 11.2578 11.5811 11.04 11.8767C10.8222 12.1722 10.5733 12.4289 10.2933 12.6467C10.0133 12.8645 9.65553 13.02 9.21997 13.1134C8.84664 13.1756 8.36442 13.2222 7.77331 13.2534H5.95331C4.67775 13.2534 3.8222 13.2378 3.38664 13.2067C2.67109 13.1134 2.11109 12.9267 1.70664 12.6467C1.42664 12.4289 1.17775 12.18 0.959974 11.9C0.648863 11.4645 0.462196 10.8889 0.399974 10.1734C0.337752 9.7378 0.306641 8.88225 0.306641 7.60669V5.83336C0.337752 5.21113 0.399974 4.72891 0.493307 4.38669C0.586641 3.95113 0.742196 3.58558 0.959974 3.29002C1.17775 2.99447 1.41886 2.74558 1.68331 2.54336C1.94775 2.34114 2.25109 2.19336 2.59331 2.10002C2.93553 2.00669 3.33997 1.94447 3.80664 1.91336V1.16669C3.80664 1.04225 3.85331 0.941134 3.94664 0.863357C4.03997 0.785579 4.13331 0.74669 4.22664 0.74669H4.27331ZM3.80664 2.80002C3.05997 2.86225 2.53109 3.0178 2.21997 3.26669C2.0022 3.39113 1.81553 3.56225 1.65997 3.78002C1.41109 4.12225 1.27109 4.66669 1.23997 5.41336H10.76C10.7289 4.66669 10.5889 4.12225 10.34 3.78002C10.1844 3.56225 9.99775 3.39113 9.77997 3.26669C9.46886 3.0178 8.93997 2.86225 8.19331 2.80002V2.89336C8.19331 3.0178 8.14664 3.12669 8.05331 3.22002C7.95997 3.31336 7.85886 3.36002 7.74997 3.36002C7.64109 3.36002 7.53997 3.31336 7.44664 3.22002C7.35331 3.12669 7.30664 3.03336 7.30664 2.94002V2.80002H4.69331V2.89336C4.69331 3.0178 4.64664 3.12669 4.55331 3.22002C4.45997 3.31336 4.35886 3.36002 4.24997 3.36002C4.14109 3.36002 4.03997 3.31336 3.94664 3.22002C3.85331 3.12669 3.80664 3.03336 3.80664 2.94002V2.80002ZM10.8066 6.25336H1.19331V7.56002C1.19331 8.83558 1.20886 9.67558 1.23997 10.08C1.3022 10.64 1.4422 11.0756 1.65997 11.3867C1.81553 11.6045 2.0022 11.7756 2.21997 11.9C2.49997 12.1178 2.91997 12.2578 3.47997 12.32C3.88442 12.3822 4.72442 12.4134 5.99997 12.4134L7.30664 12.3667C7.30664 12.0867 7.3222 11.8689 7.35331 11.7134C7.47775 10.9978 7.79664 10.3834 8.30997 9.87002C8.82331 9.35669 9.43775 9.05336 10.1533 8.96002C10.3089 8.92891 10.5266 8.91336 10.8066 8.91336V6.25336ZM10.76 9.75336C10.5422 9.75336 10.3866 9.76891 10.2933 9.80002C9.76442 9.89336 9.30553 10.1267 8.91664 10.5C8.52775 10.8734 8.3022 11.3245 8.23997 11.8534C8.20886 11.9778 8.19331 12.1489 8.19331 12.3667C8.93997 12.3045 9.46886 12.1489 9.77997 11.9C9.99775 11.7756 10.1844 11.6045 10.34 11.3867C10.5889 11.0445 10.7289 10.5 10.76 9.75336Z" fill="#585D69"/>
</svg>
